# xmcd
#
# Track frame offsets: 
#        150
#        10588
#        23488
#        34663
#        45763
#        58888
#        70363
#        82213
#        97063
#        111313
#        125713
#        136813
#        149638
#        163138
#        177988
#
# Disc length: 2571 seconds
#
# Revision: 0
# Processed by: cddbd v1.4PL0 Copyright (c) Steve Scherf et al.
# Submitted via: ExactAudioCopy v0.90b3
#
DISCID=d40a090f
DTITLE=George Jones - The Very Best Of George Jones - Disc 1
DYEAR=1900
DGENRE=Country
TTITLE0=The Race Is On
TTITLE1=Still Doin' Time
TTITLE2=She's My Rock
TTITLE3=Walk Through This World With Me
TTITLE4=Tennessee Whiskey
TTITLE5=Tender Years
TTITLE6=White Lightnin'
TTITLE7=Who's Gonna Fill Their Shoes
TTITLE8=The Grand Tour
TTITLE9=If Drinkin' Don't Kill Me (Her Memory Will)
TTITLE10=Why Baby Why
TTITLE11=She Still Thinks I Still Care
TTITLE12=Good Hearted Woman
TTITLE13=He Stopped Loving Her Today
TTITLE14=I Always Get Lucky With You
EXTD=
EXTT0=
EXTT1=
EXTT2=
EXTT3=
EXTT4=
EXTT5=
EXTT6=
EXTT7=
EXTT8=
EXTT9=
EXTT10=
EXTT11=
EXTT12=
EXTT13=
EXTT14=
PLAYORDER=
